<?xml version="1.0" standalone="no"?>
<!DOCTYPE svg PUBLIC "-//W3C//DTD SVG 20010904//EN"
 "http://www.w3.org/TR/2001/REC-SVG-20010904/DTD/svg10.dtd">
<svg version="1.0" xmlns="http://www.w3.org/2000/svg"
 width="500.000000pt" height="500.000000pt" viewBox="0 0 500.000000 500.000000"
 preserveAspectRatio="xMidYMid meet">

<g transform="translate(0.000000,500.000000) scale(0.100000,-0.100000)"
fill="#000000" stroke="none">
<path d="M2405 4244 c-213 -24 -352 -60 -528 -138 -285 -127 -467 -261 -658
-489 -253 -301 -398 -750 -374 -1162 13 -230 85 -501 155 -580 10 -11 20 -38
23 -60 3 -22 8 -48 12 -57 16 -40 -26 -15 -96 58 -106 108 -247 235 -222 198
24 -33 269 -319 321 -373 28 -29 43 -71 26 -71 -3 0 -75 45 -159 100 -84 55
-156 100 -160 100 -6 0 34 -35 181 -159 17 -14 61 -46 97 -71 64 -44 66 -46
84 -114 l18 -69 165 -79 c91 -44 203 -97 250 -118 47 -21 166 -77 265 -125 99
-47 203 -96 230 -108 28 -12 99 -45 158 -74 59 -29 112 -53 118 -53 5 0 8 23
5 58 -3 31 -8 215 -12 407 l-6 350 -117 55 c-64 30 -156 72 -206 93 -49 21
-180 79 -290 129 -110 49 -256 115 -325 145 -69 31 -152 69 -186 84 -33 16
-92 42 -129 57 -38 15 -70 33 -73 40 -5 16 143 85 167 77 11 -3 22 -1 26 5 10
16 98 58 112 53 6 -2 30 7 52 21 22 14 48 26 56 26 9 0 76 -27 148 -60 73 -34
175 -80 227 -103 52 -23 155 -72 228 -109 135 -69 178 -82 58 -18 -38 20 -66
42 -66 51 0 27 58 107 89 123 47 25 57 20 92 -41 46 -81 190 -223 259 -255 72
-34 118 -46 65 -17 -110 59 -273 210 -322 297 -37 67 -36 76 10 87 24 7 29 4
40 -26 l12 -34 5 40 c5 37 9 42 60 67 l55 28 64 -18 c73 -21 99 -46 31 -31
-26 6 -48 6 -59 -1 -17 -8 -18 -15 -9 -49 l10 -39 36 24 c19 14 46 27 60 31
23 5 24 9 18 54 -7 51 3 69 25 43 7 -9 32 -29 56 -45 52 -36 62 -34 149 31
l64 49 0 -64 c0 -60 2 -66 30 -87 17 -12 30 -30 30 -41 0 -11 -16 -48 -35 -84
-19 -35 -30 -61 -24 -57 20 12 90 169 87 194 -3 22 -7 25 -41 23 -32 -2 -38 0
-35 15 3 14 15 17 79 17 74 0 77 -1 119 -39 42 -38 44 -38 51 -18 10 28 33 28
59 2 l21 -21 -22 -39 c-28 -49 -103 -127 -178 -183 -66 -50 -192 -127 -209
-127 -6 0 -14 -5 -17 -10 -17 -28 135 45 210 100 59 44 181 171 197 206 18 39
79 29 119 -20 28 -34 53 -96 43 -105 -5 -4 -43 -22 -86 -39 -125 -52 -319
-152 -378 -195 -82 -61 -180 -148 -192 -171 -6 -12 21 9 58 45 38 36 93 85
123 108 73 56 359 195 601 291 52 21 171 70 264 109 159 67 170 71 192 56 13
-8 32 -15 43 -15 11 0 41 -11 68 -25 26 -14 52 -24 59 -21 6 2 37 -9 69 -25
32 -16 62 -26 66 -22 18 21 42 288 36 421 -27 674 -444 1233 -1107 1485 -217
83 -489 122 -685 101z m-278 -324 c7 -18 25 -36 47 -47 20 -9 36 -19 36 -22
-1 -3 -15 -15 -33 -26 -18 -11 -38 -35 -46 -53 -8 -17 -18 -32 -22 -32 -5 0
-16 16 -25 35 -9 19 -29 43 -45 52 -35 21 -36 27 -4 41 13 6 35 27 47 47 13
19 25 35 28 35 3 0 11 -13 17 -30z m1018 -1 c11 -16 -4 -59 -20 -59 -8 0 -25
10 -37 22 -20 20 -20 22 -3 35 22 16 51 17 60 2z m-410 -124 c96 -20 184 -60
261 -119 111 -83 184 -203 248 -408 20 -64 45 -136 55 -160 22 -51 89 -123
186 -200 122 -96 155 -147 155 -240 0 -53 -14 -54 -28 -2 -15 54 -83 124 -162
167 l-52 28 35 -43 c76 -94 96 -177 60 -256 l-17 -37 -5 55 c-6 51 -46 139
-70 155 -6 3 -7 -17 -4 -50 7 -64 -14 -129 -52 -165 l-24 -22 14 45 c9 30 11
55 5 74 -5 16 -9 21 -9 10 -1 -28 -46 -109 -75 -136 -30 -28 -31 -26 -11 22
24 58 18 64 -20 20 -20 -24 -48 -44 -64 -48 -16 -3 -35 -13 -42 -21 -17 -21
-68 -46 -82 -41 -7 2 -29 -2 -51 -9 -55 -20 -55 -19 -9 29 78 79 113 192 94
307 -5 30 -9 43 -10 28 -1 -34 -33 -68 -63 -68 -17 0 -28 -11 -42 -41 -13 -28
-40 -57 -85 -90 -85 -63 -211 -129 -247 -129 -33 0 -171 76 -249 137 -38 30
-64 60 -76 89 -11 24 -26 44 -34 44 -8 0 -24 9 -34 19 -19 19 -19 18 -25 -11
-11 -57 -6 -103 19 -157 l25 -53 -27 17 -28 18 29 -32 c30 -31 23 -41 -15 -21
-22 12 -49 70 -50 109 l-1 26 -13 -30 c-19 -40 -18 -113 0 -149 19 -35 15 -40
-19 -25 -30 14 -54 48 -73 104 l-13 40 4 -61 c2 -33 12 -76 21 -95 17 -33 17
-33 0 -19 -29 24 -55 91 -55 145 0 68 21 131 70 214 68 114 82 161 86 291 2
74 0 106 -5 90 l-9 -25 -1 25 c-2 36 -17 7 -26 -50 -3 -25 -9 -54 -12 -65 l-6
-20 -7 20 c-6 15 -9 7 -14 -30 -4 -27 -10 -70 -15 -95 l-8 -45 -8 50 c-8 45
10 219 31 305 5 18 -2 12 -23 -20 -17 -25 -62 -78 -101 -119 -40 -40 -69 -77
-66 -82 2 -5 -7 -19 -22 -31 -154 -130 -170 -147 -198 -209 l-25 -54 0 46 c-2
92 77 197 219 291 76 51 149 141 215 270 41 78 60 126 35 88 -7 -11 -10 -12
-10 -2 0 19 76 148 117 199 38 48 157 130 207 144 22 6 43 6 60 -1 21 -7 33
-5 59 10 17 11 40 20 50 20 9 0 17 4 17 9 0 14 -38 24 -89 23 -33 -1 -42 1
-31 8 23 15 152 12 235 -5z m894 -294 c8 -14 7 -22 -5 -32 -14 -11 -18 -10
-30 6 -10 13 -11 22 -3 32 16 18 26 16 38 -6z m-1855 -39 c15 -18 15 -20 -4
-37 -16 -14 -22 -15 -35 -5 -18 15 -19 32 -3 48 16 16 22 15 42 -6z m-305
-293 l24 -20 -28 -29 -28 -29 -30 29 -30 29 24 20 c30 25 38 25 68 0z m2308
-118 c10 -16 8 -22 -7 -36 -17 -16 -21 -16 -35 -2 -18 19 -19 29 -3 45 17 17
31 15 45 -7z m-1788 -63 c-6 -13 -22 -36 -34 -53 -12 -16 -30 -45 -39 -64
l-18 -34 31 22 c17 12 31 20 31 17 0 -3 -14 -28 -31 -55 -34 -56 -69 -149 -72
-191 -4 -60 -42 -4 -53 79 -6 43 -2 59 21 107 15 31 57 87 93 125 65 70 92 87
71 47z m-35 -280 c-12 -58 -13 -85 -5 -114 11 -40 9 -50 -8 -40 -18 11 -33 87
-27 131 6 39 42 112 51 103 3 -2 -2 -38 -11 -80z m-651 -10 c17 -13 16 -15
-12 -36 l-31 -22 -20 20 c-11 11 -25 20 -31 20 -5 0 2 11 18 24 28 24 36 24
76 -6z m2671 -80 c-22 -23 -26 -23 -43 4 -12 19 -11 23 5 35 15 11 20 10 36
-4 17 -15 17 -17 2 -35z m-2314 -134 c0 -9 -5 -14 -12 -12 -18 6 -21 28 -4 28
9 0 16 -7 16 -16z m2160 -34 c0 -5 -4 -10 -10 -10 -5 0 -10 5 -10 10 0 6 5 10
10 10 6 0 10 -4 10 -10z"/>
<path d="M2401 3275 c0 -17 15 -58 56 -154 5 -10 -2 -13 -30 -9 -20 2 -35 2
-33 0 17 -16 112 -69 114 -63 1 4 -13 34 -33 67 -20 32 -44 86 -55 119 -10 33
-19 51 -19 40z"/>
<path d="M2177 3241 c-4 -18 -7 -43 -6 -55 1 -11 5 -1 10 24 5 25 7 49 6 55
-2 5 -7 -5 -10 -24z"/>
<path d="M2480 3228 c0 -9 7 -22 17 -29 15 -13 15 -12 3 11 -17 34 -20 36 -20
18z"/>
<path d="M2707 3214 c12 -17 30 -37 40 -45 13 -10 12 -6 -4 17 -12 17 -30 37
-40 45 -13 10 -12 6 4 -17z"/>
<path d="M2785 3140 c10 -11 20 -20 23 -20 3 0 -3 9 -13 20 -10 11 -20 20 -23
20 -3 0 3 -9 13 -20z"/>
<path d="M2580 3085 c13 -14 26 -25 28 -25 3 0 -5 11 -18 25 -13 14 -26 25
-28 25 -3 0 5 -11 18 -25z"/>
<path d="M2818 3103 c7 -3 16 -2 19 1 4 3 -2 6 -13 5 -11 0 -14 -3 -6 -6z"/>
<path d="M2650 3096 c0 -2 8 -10 18 -17 15 -13 16 -12 3 4 -13 16 -21 21 -21
13z"/>
<path d="M2222 3070 c0 -14 2 -19 5 -12 2 6 2 18 0 25 -3 6 -5 1 -5 -13z"/>
<path d="M2295 2986 c-54 -23 -60 -40 -27 -76 28 -30 29 -30 25 -8 -5 25 27
64 34 42 2 -6 17 -8 33 -6 18 3 30 0 30 -7 0 -6 -12 -11 -26 -11 -18 0 -25 -5
-22 -16 2 -13 16 -17 61 -18 56 -1 57 -1 57 27 0 24 3 27 20 22 41 -13 9 38
-34 55 -37 14 -115 12 -151 -4z m143 -64 c3 -9 -2 -13 -14 -10 -9 1 -19 9 -22
16 -3 9 2 13 14 10 9 -1 19 -9 22 -16z"/>
<path d="M2768 2985 c-34 -19 -40 -60 -8 -50 17 5 20 2 20 -23 0 -28 2 -29 43
-27 72 3 76 4 79 28 2 14 10 22 23 22 16 0 20 -7 20 -31 l0 -32 37 30 c21 16
38 33 38 36 0 4 -19 18 -42 31 -55 31 -169 40 -210 16z m52 -55 c0 -5 -7 -10
-15 -10 -8 0 -15 5 -15 10 0 6 7 10 15 10 8 0 15 -4 15 -10z m55 0 c3 -5 -1
-10 -9 -10 -9 0 -16 5 -16 10 0 6 4 10 9 10 6 0 13 -4 16 -10z"/>
<path d="M3031 2974 c0 -11 3 -14 6 -6 3 7 2 16 -1 19 -3 4 -6 -2 -5 -13z"/>
<path d="M3201 2964 c0 -11 3 -14 6 -6 3 7 2 16 -1 19 -3 4 -6 -2 -5 -13z"/>
<path d="M3030 2900 c-9 -16 -8 -18 5 -14 8 4 15 12 15 20 0 20 -7 17 -20 -6z"/>
<path d="M3052 2835 c0 -16 2 -22 5 -12 2 9 2 23 0 30 -3 6 -5 -1 -5 -18z"/>
<path d="M3162 2775 l1 -60 7 45 c4 25 4 52 -1 60 -5 9 -8 -8 -7 -45z"/>
<path d="M1831 2670 c0 -8 4 -22 9 -30 12 -18 12 -2 0 25 -6 13 -9 15 -9 5z"/>
<path d="M4355 2195 c-132 -119 -165 -145 -165 -131 0 9 21 113 26 129 6 19
-15 23 -44 7 -40 -22 -287 -131 -852 -375 -147 -64 -364 -160 -512 -227 l-66
-31 0 -273 c0 -151 -3 -312 -7 -359 -6 -63 -4 -85 5 -85 12 0 192 96 375 200
61 35 144 82 185 104 72 40 149 85 495 286 88 51 189 110 225 130 58 34 206
134 285 193 127 95 250 199 215 181 -8 -4 -58 -35 -110 -69 -52 -34 -131 -85
-175 -113 -80 -52 -105 -62 -105 -41 0 6 80 90 178 186 97 97 161 165 142 151
-82 -58 -159 -116 -218 -165 -58 -50 -82 -63 -82 -45 1 4 7 32 14 62 13 50 25
66 135 180 103 106 220 240 209 240 -2 0 -70 -61 -153 -135z"/>
<path d="M2410 2227 c0 -8 51 -87 57 -87 5 0 -22 51 -41 75 -8 11 -16 17 -16
12z"/>
<path d="M2724 2073 c-26 -32 -38 -49 -25 -38 25 22 85 95 78 95 -2 0 -26 -26
-53 -57z"/>
<path d="M2490 2096 c0 -2 8 -10 18 -17 15 -13 16 -12 3 4 -13 16 -21 21 -21
13z"/>
<path d="M2160 2061 c0 -8 -6 -11 -17 -7 -23 9 -17 4 42 -36 64 -44 75 -50 75
-44 0 2 -16 14 -35 26 -19 12 -42 34 -50 48 -8 15 -14 21 -15 13z"/>
<path d="M2520 2056 c0 -2 8 -10 18 -17 15 -13 16 -12 3 4 -13 16 -21 21 -21
13z"/>
<path d="M2317 1927 c28 -26 74 -76 102 -111 51 -64 105 -168 94 -180 -4 -3 0
-6 9 -6 38 0 -92 207 -177 281 -64 55 -85 67 -28 16z"/>
<path d="M2582 1711 c-2 -58 -1 -59 18 -22 7 13 7 21 2 17 -6 -4 -12 7 -15 26
-2 22 -4 15 -5 -21z"/>
<path d="M2568 1628 c5 -5 16 -8 23 -6 8 3 3 7 -10 11 -17 4 -21 3 -13 -5z"/>
<path d="M2336 1332 c4 -141 9 -324 13 -407 l6 -150 45 -22 c57 -30 159 -31
222 -4 l44 19 2 118 c4 142 18 346 31 429 5 33 10 101 10 151 l1 91 -49 -24
c-98 -49 -233 -37 -301 27 l-31 29 7 -257z"/>
<path d="M815 1465 c63 -37 380 -195 392 -195 24 0 -130 90 -254 148 -170 80
-224 99 -138 47z"/>
<path d="M2703 1185 c0 -33 2 -45 4 -27 2 18 2 45 0 60 -2 15 -4 0 -4 -33z"/>
</g>
</svg>